<?xml version="1.0" standalone="no"?>
<!DOCTYPE svg PUBLIC "-//W3C//DTD SVG 20010904//EN"
 "http://www.w3.org/TR/2001/REC-SVG-20010904/DTD/svg10.dtd">
<svg version="1.0" xmlns="http://www.w3.org/2000/svg"
 width="80.000000pt" height="80.000000pt" viewBox="0 0 80.000000 80.000000"
 preserveAspectRatio="xMidYMid meet">
<metadata>
Created by potrace 1.10, written by Peter Selinger 2001-2011
</metadata>
<g transform="translate(0.000000,80.000000) scale(0.100000,-0.100000)"
fill="#000000" stroke="none">
<path d="M363 696 c-25 -22 -27 -27 -17 -54 11 -29 10 -31 -33 -61 -48 -34
-82 -95 -83 -147 0 -17 11 -48 25 -68 23 -34 24 -39 10 -59 -8 -12 -15 -24
-15 -27 0 -3 68 -5 150 -5 83 0 150 2 150 5 0 3 -7 15 -15 27 -14 20 -13 25
10 59 14 20 25 50 25 67 0 49 -39 116 -85 149 -41 29 -42 31 -31 60 10 27 8
32 -17 54 -15 13 -32 24 -37 24 -5 0 -22 -11 -37 -24z m55 -57 c-2 -34 3 -45
22 -61 87 -67 114 -119 94 -177 -9 -24 -13 -26 -64 -22 -30 1 -57 5 -59 7 -3
2 12 21 32 42 20 21 37 45 37 53 0 8 -18 33 -40 54 l-40 39 -40 -39 c-22 -21
-40 -46 -40 -54 0 -8 17 -32 37 -53 20 -21 35 -39 32 -42 -2 -2 -28 -6 -57 -8
-60 -6 -72 5 -72 64 0 32 41 108 59 108 4 0 22 14 40 30 27 26 30 34 20 51
-14 27 -5 49 21 49 18 0 20 -5 18 -41z m-6 -128 c-3 -19 1 -22 20 -19 15 2 23
-2 23 -12 0 -10 -8 -14 -23 -12 -20 3 -23 0 -20 -20 2 -15 -2 -23 -12 -23 -10
0 -14 8 -12 23 3 20 0 23 -20 20 -15 -2 -23 2 -23 12 0 10 8 14 23 12 18 -3
23 1 22 15 -3 29 -1 35 13 30 6 -2 11 -14 9 -26z m86 -173 c-3 -9 -32 -13 -98
-13 -66 0 -95 4 -97 13 -4 9 20 12 97 12 77 0 101 -3 98 -12z"/>
<path d="M250 244 c0 -18 33 -41 70 -50 28 -7 15 -10 -72 -14 -95 -4 -109 -8
-132 -29 -46 -43 -22 -51 142 -43 78 4 206 4 284 0 149 -7 181 -1 156 29 -26
32 -68 43 -160 44 -85 1 -90 2 -57 13 20 6 44 17 53 25 37 31 19 36 -134 36
-102 0 -150 -4 -150 -11z m198 -44 c-18 -29 2 -44 70 -51 31 -3 -24 -5 -123
-5 -99 0 -152 2 -118 5 72 7 90 19 74 50 -11 20 -10 21 49 21 57 0 60 -1 48
-20z"/>
</g>
</svg>
