<?xml version="1.0" standalone="no"?>
<!DOCTYPE svg PUBLIC "-//W3C//DTD SVG 20010904//EN"
 "http://www.w3.org/TR/2001/REC-SVG-20010904/DTD/svg10.dtd">
<svg version="1.0" xmlns="http://www.w3.org/2000/svg"
 width="80.000000pt" height="80.000000pt" viewBox="0 0 80.000000 80.000000"
 preserveAspectRatio="xMidYMid meet">
<metadata>
Created by potrace 1.10, written by Peter Selinger 2001-2011
</metadata>
<g transform="translate(0.000000,80.000000) scale(0.100000,-0.100000)"
fill="#000000" stroke="none">
<path d="M390 690 c0 -15 -7 -20 -26 -20 -16 0 -24 -5 -21 -12 2 -7 14 -12 26
-11 32 4 27 -33 -9 -67 -21 -20 -30 -37 -30 -59 l0 -31 -40 20 c-59 30 -112
27 -154 -11 -64 -56 -61 -129 10 -196 28 -28 44 -51 44 -67 0 -24 0 -24 47
-10 27 8 90 14 153 14 63 0 126 -6 153 -14 47 -14 47 -14 47 10 0 13 4 24 9
24 23 0 101 92 107 127 19 100 -103 178 -200 128 -37 -19 -36 -19 -36 11 0 16
-12 37 -30 54 -36 34 -41 71 -9 67 12 -1 24 4 26 11 3 7 -5 12 -21 12 -19 0
-26 5 -26 20 0 11 -4 20 -10 20 -5 0 -10 -9 -10 -20z m28 -128 c7 -5 16 -22
21 -39 8 -27 5 -35 -15 -54 l-24 -23 -21 21 c-26 26 -28 72 -3 90 21 15 25 16
42 5z m-123 -76 c28 -13 63 -38 78 -55 l27 -32 32 37 c63 71 156 93 218 52 62
-42 60 -106 -4 -168 -22 -23 -47 -46 -54 -54 -11 -10 -24 -9 -70 7 -70 23
-209 25 -272 3 l-43 -15 -40 37 c-66 62 -81 127 -38 176 36 42 94 46 166 12z"/>
<path d="M152 460 c-38 -36 -25 -95 30 -139 27 -22 33 -23 85 -12 31 6 71 11
88 11 30 0 32 2 29 32 -11 90 -171 164 -232 108z m127 -30 c22 -11 49 -32 61
-47 l21 -27 -73 -13 c-75 -12 -85 -10 -115 26 -16 19 -17 53 -1 69 18 18 64
15 107 -8z"/>
<path d="M505 461 c-47 -29 -83 -73 -87 -106 -3 -29 -1 -30 52 -42 30 -6 67
-14 81 -18 38 -10 119 67 119 113 0 64 -97 95 -165 53z m116 -21 c29 -16 23
-49 -15 -85 l-35 -33 -55 13 c-79 18 -82 22 -49 57 47 51 111 70 154 48z"/>
<path d="M265 205 c-33 -7 -63 -11 -67 -8 -5 2 -8 -7 -8 -20 l0 -25 43 16 c60
22 268 22 320 -1 37 -16 37 -16 37 6 0 15 -6 23 -17 24 -10 0 -45 6 -78 12
-77 14 -154 13 -230 -4z"/>
<path d="M270 149 c-66 -19 -67 -19 -40 -34 39 -21 149 -37 200 -30 25 3 70
13 100 22 l55 16 -35 15 c-43 18 -230 26 -280 11z m157 -29 c-21 -4 -53 -4
-70 0 -24 6 -15 8 38 8 58 0 64 -2 32 -8z"/>
</g>
</svg>
