<?xml version="1.0" standalone="no"?>
<!DOCTYPE svg PUBLIC "-//W3C//DTD SVG 20010904//EN"
 "http://www.w3.org/TR/2001/REC-SVG-20010904/DTD/svg10.dtd">
<svg version="1.0" xmlns="http://www.w3.org/2000/svg"
 width="80.000000pt" height="80.000000pt" viewBox="0 0 80.000000 80.000000"
 preserveAspectRatio="xMidYMid meet">
<metadata>
Created by potrace 1.10, written by Peter Selinger 2001-2011
</metadata>
<g transform="translate(0.000000,80.000000) scale(0.100000,-0.100000)"
fill="#000000" stroke="none">
<path d="M347 661 c-14 -17 -29 -31 -33 -31 -4 0 -20 12 -35 26 -33 32 -53 23
-46 -20 3 -24 -5 -47 -38 -101 -92 -152 -110 -208 -85 -256 6 -11 21 -19 35
-19 14 0 34 -5 44 -12 17 -10 26 -6 69 33 27 24 72 63 100 87 l52 43 -7 -33
c-9 -48 -30 -86 -78 -137 -50 -55 -65 -81 -65 -115 l0 -26 190 0 190 0 0 88
c0 114 -15 212 -41 273 -26 60 -86 116 -133 125 -41 7 -49 24 -12 24 13 0 45
-15 72 -32 89 -61 134 -181 137 -368 2 -86 5 -110 16 -110 11 0 12 19 7 103
-18 262 -95 393 -249 422 -20 4 -37 13 -37 19 0 7 -6 20 -13 30 -13 17 -15 16
-40 -13z m125 -111 c52 -16 104 -79 118 -144 7 -28 14 -102 17 -163 l6 -113
-162 0 c-188 0 -188 0 -110 86 81 90 111 180 68 207 -17 11 -36 -2 -158 -109
-43 -37 -48 -39 -78 -29 -40 13 -52 24 -20 18 28 -6 50 17 45 48 -2 18 -15 31
-46 46 -5 2 37 81 47 87 5 3 14 -1 21 -9 19 -22 35 -18 64 16 32 38 33 54 1
83 -14 13 -25 31 -25 41 0 17 1 17 18 2 25 -22 45 -21 67 3 18 20 19 20 54
-19 20 -22 53 -44 73 -51z m-192 -8 c0 -10 -6 -27 -14 -38 -11 -15 -17 -16
-27 -7 -9 9 -8 17 5 37 19 30 36 34 36 8z m-104 -183 c10 -17 -13 -36 -27 -22
-12 12 -4 33 11 33 5 0 12 -5 16 -11z"/>
</g>
</svg>
