<?xml version="1.0" standalone="no"?>
<!DOCTYPE svg PUBLIC "-//W3C//DTD SVG 20010904//EN"
 "http://www.w3.org/TR/2001/REC-SVG-20010904/DTD/svg10.dtd">
<svg version="1.0" xmlns="http://www.w3.org/2000/svg"
 width="80.000000pt" height="80.000000pt" viewBox="0 0 80.000000 80.000000"
 preserveAspectRatio="xMidYMid meet">
<metadata>
Created by potrace 1.10, written by Peter Selinger 2001-2011
</metadata>
<g transform="translate(0.000000,80.000000) scale(0.100000,-0.100000)"
fill="#000000" stroke="none">
<path d="M353 638 c-28 -13 -46 -58 -37 -91 3 -15 2 -27 -3 -27 -17 0 -43 -58
-43 -97 0 -21 7 -48 15 -61 15 -21 14 -23 -20 -53 -47 -42 -75 -98 -82 -165
l-6 -54 216 0 216 0 -6 37 c-13 95 -65 189 -112 204 -12 4 -11 10 3 31 28 43
22 112 -12 151 -10 11 -15 32 -13 52 2 27 -4 40 -25 60 -29 26 -55 30 -91 13z
m75 -40 c7 -7 12 -28 12 -47 0 -20 9 -47 20 -61 22 -29 25 -78 8 -128 -12 -33
-11 -35 26 -69 42 -39 75 -103 76 -145 l0 -28 -180 0 c-165 0 -180 1 -180 18
0 45 25 99 67 143 39 42 44 53 38 76 -18 73 -17 102 4 132 12 16 21 44 21 63
0 41 15 58 50 58 14 0 31 -5 38 -12z"/>
</g>
</svg>
