<?xml version="1.0" standalone="no"?>
<!DOCTYPE svg PUBLIC "-//W3C//DTD SVG 20010904//EN"
 "http://www.w3.org/TR/2001/REC-SVG-20010904/DTD/svg10.dtd">
<svg version="1.0" xmlns="http://www.w3.org/2000/svg"
 width="80.000000pt" height="80.000000pt" viewBox="0 0 80.000000 80.000000"
 preserveAspectRatio="xMidYMid meet">
<metadata>
Created by potrace 1.10, written by Peter Selinger 2001-2011
</metadata>
<g transform="translate(0.000000,80.000000) scale(0.100000,-0.100000)"
fill="#000000" stroke="none">
<path d="M373 698 c-22 -29 -23 -38 -4 -57 20 -20 20 -20 -2 -131 -11 -60 -25
-110 -29 -110 -4 0 -8 7 -8 15 0 9 -16 55 -35 103 -29 73 -32 88 -20 95 18 10
20 48 3 65 -34 34 -90 -6 -68 -48 6 -11 15 -20 20 -20 6 0 10 -46 10 -111 l0
-112 -51 78 c-41 64 -49 82 -44 107 8 35 -8 58 -41 58 -48 0 -56 -74 -9 -86
24 -6 30 -27 51 -179 3 -27 15 -59 26 -71 16 -18 25 -20 61 -13 54 11 280 11
334 0 36 -7 45 -5 61 13 11 12 23 44 26 71 21 152 27 173 51 179 47 12 39 86
-9 86 -33 0 -49 -23 -41 -58 5 -25 -3 -43 -44 -107 l-51 -78 0 102 c0 88 3
104 20 121 25 25 25 35 0 60 -15 15 -25 17 -42 11 -29 -10 -37 -57 -13 -75 15
-11 14 -16 -9 -65 -14 -30 -31 -74 -38 -98 -7 -23 -15 -43 -18 -43 -3 0 -16
50 -27 110 l-22 111 20 20 c18 18 19 23 6 42 -17 26 -50 33 -64 15z m37 -38
c0 -5 -4 -10 -10 -10 -5 0 -10 5 -10 10 0 6 5 10 10 10 6 0 10 -4 10 -10z
m-150 -15 c0 -8 -4 -15 -10 -15 -5 0 -10 7 -10 15 0 8 5 15 10 15 6 0 10 -7
10 -15z m300 -10 c0 -8 -4 -15 -10 -15 -5 0 -10 7 -10 15 0 8 5 15 10 15 6 0
10 -7 10 -15z m140 -49 c0 -3 -4 -8 -10 -11 -5 -3 -10 -1 -10 4 0 6 5 11 10
11 6 0 10 -2 10 -4z m-286 -128 c4 -24 14 -53 22 -66 13 -20 18 -21 31 -10 9
7 25 33 37 58 l20 45 6 -48 c3 -26 13 -54 22 -63 15 -15 19 -13 47 26 l31 43
0 -29 c0 -16 -4 -45 -10 -64 l-10 -35 -212 1 -213 1 -6 29 c-4 16 -7 45 -8 64
l-1 35 18 -30 c11 -16 26 -36 34 -43 23 -19 48 20 49 78 l1 45 23 -50 c31 -69
48 -82 67 -52 9 12 19 41 23 65 9 54 21 54 29 0z"/>
<path d="M239 263 c-31 -4 -35 -7 -32 -27 3 -13 -2 -28 -11 -35 -9 -8 -16 -16
-16 -20 0 -3 77 -4 171 -2 166 3 259 -3 259 -17 0 -4 -99 -6 -220 -5 -209 1
-220 0 -220 -18 0 -36 35 -42 239 -42 171 1 196 3 207 17 13 19 5 66 -17 92
-6 8 -9 22 -6 33 4 16 -3 19 -47 25 -53 6 -244 6 -307 -1z m285 -42 c33 -3 61
-11 63 -17 2 -7 -13 -8 -49 -3 -29 4 -91 8 -138 8 -47 0 -109 -4 -138 -8 -36
-5 -51 -4 -49 3 7 20 192 30 311 17z"/>
</g>
</svg>
