<?xml version="1.0" standalone="no"?>
<!DOCTYPE svg PUBLIC "-//W3C//DTD SVG 20010904//EN"
 "http://www.w3.org/TR/2001/REC-SVG-20010904/DTD/svg10.dtd">
<svg version="1.0" xmlns="http://www.w3.org/2000/svg"
 width="80.000000pt" height="80.000000pt" viewBox="0 0 80.000000 80.000000"
 preserveAspectRatio="xMidYMid meet">
<metadata>
Created by potrace 1.10, written by Peter Selinger 2001-2011
</metadata>
<g transform="translate(0.000000,80.000000) scale(0.100000,-0.100000)"
fill="#000000" stroke="none">
<path d="M223 652 l-43 -3 0 -51 c0 -43 4 -54 31 -79 l31 -29 -4 -109 c-2 -86
-7 -113 -20 -128 -10 -11 -18 -34 -18 -51 0 -27 -4 -32 -25 -32 -22 0 -25 -4
-25 -40 l0 -40 250 0 250 0 0 40 c0 36 -2 40 -25 40 -21 0 -25 5 -25 32 0 17
-8 40 -17 51 -14 15 -19 42 -21 128 l-4 109 32 30 c28 26 31 34 28 81 l-3 52
-45 0 c-34 0 -46 -4 -48 -16 -5 -23 -59 -23 -64 -1 -2 13 -15 17 -58 17 -43 0
-56 -4 -58 -17 -4 -21 -62 -23 -62 -2 0 20 -7 22 -57 18z m37 -47 c11 -13 8
-15 -19 -15 -21 0 -31 5 -31 15 0 8 8 15 19 15 10 0 24 -7 31 -15z m180 0 c11
-13 5 -15 -40 -15 -45 0 -51 2 -40 15 7 8 25 15 40 15 15 0 33 -7 40 -15z
m140 0 c0 -9 -9 -15 -25 -15 -18 0 -23 4 -19 15 4 8 15 15 25 15 10 0 19 -7
19 -15z m30 -55 c0 -6 -77 -10 -210 -10 -133 0 -210 4 -210 10 0 6 77 10 210
10 133 0 210 -4 210 -10z m-55 -40 c4 -7 -50 -10 -155 -10 -105 0 -159 3 -155
10 4 6 67 10 155 10 88 0 151 -4 155 -10z m-25 -120 l0 -70 -130 0 -130 0 0
70 0 70 130 0 130 0 0 -70z m25 -110 c4 -7 -50 -10 -155 -10 -105 0 -159 3
-155 10 4 6 67 10 155 10 88 0 151 -4 155 -10z m25 -40 c0 -6 -67 -10 -180
-10 -113 0 -180 4 -180 10 0 6 67 10 180 10 113 0 180 -4 180 -10z m10 -70 c0
-6 -70 -10 -190 -10 -120 0 -190 4 -190 10 0 6 70 10 190 10 120 0 190 -4 190
-10z"/>
</g>
</svg>
